<?xml version="1.0" encoding="UTF-8" standalone="no"?>
<svg
   xmlns:dc="http://purl.org/dc/elements/1.1/"
   xmlns:cc="http://creativecommons.org/ns#"
   xmlns:rdf="http://www.w3.org/1999/02/22-rdf-syntax-ns#"
   xmlns:svg="http://www.w3.org/2000/svg"
   xmlns="http://www.w3.org/2000/svg"
   xmlns:sodipodi="http://sodipodi.sourceforge.net/DTD/sodipodi-0.dtd"
   xmlns:inkscape="http://www.inkscape.org/namespaces/inkscape"
   inkscape:version="1.0 (1.0+r73+1)"
   sodipodi:docname="logov2.svg"
   id="svg92"
   preserveAspectRatio="xMidYMid meet"
   viewBox="0 0 622.09998 223.52704"
   height="223.52704pt"
   width="622.09998pt"
   version="1.0">
  <defs
     id="defs96" />
  <sodipodi:namedview
     inkscape:current-layer="svg92"
     inkscape:window-maximized="1"
     inkscape:window-y="27"
     inkscape:window-x="67"
     inkscape:cy="325.33333"
     inkscape:cx="409.2"
     inkscape:zoom="0.37361111"
     showgrid="false"
     id="namedview94"
     inkscape:window-height="713"
     inkscape:window-width="1299"
     inkscape:pageshadow="2"
     inkscape:pageopacity="0"
     guidetolerance="10"
     gridtolerance="10"
     objecttolerance="10"
     borderopacity="1"
     bordercolor="#666666"
     pagecolor="#ffffff" />
  <metadata
     id="metadata72">
Created by potrace 1.16, written by Peter Selinger 2001-2019
<rdf:RDF>
  <cc:Work
     rdf:about="">
    <dc:format>image/svg+xml</dc:format>
    <dc:type
       rdf:resource="http://purl.org/dc/dcmitype/StillImage" />
    <dc:title></dc:title>
  </cc:Work>
</rdf:RDF>
</metadata>
  <g
     id="g90"
     stroke="none"
     fill="#000000"
     transform="matrix(0.1,0,0,-0.1,-233.1,784)">
    <path
       id="path74"
       d="m 2686,7773 c -14,-38 -100,-268 -190,-512 l -165,-444 71,-79 71,-78 h 116 117 l 36,103 35,102 157,3 157,3 12,-29 c 7,-16 53,-64 104,-106 l 91,-76 h 136 c 102,0 136,3 136,13 0,6 -84,239 -187,516 l -187,504 -96,73 -95,74 h -147 -146 z m 482,-442 c 100,-269 182,-492 182,-495 0,-4 -48,-5 -107,-4 l -108,3 -34,98 -33,97 h -209 c -208,0 -210,0 -218,-22 -4,-13 -20,-58 -35,-100 l -28,-78 h -104 c -57,0 -104,4 -104,8 0,4 81,226 180,492 99,266 180,485 180,487 0,2 58,3 128,3 h 129 z m -59,395 66,-53 178,-479 c 97,-263 177,-483 177,-487 0,-4 -31,16 -69,45 l -68,53 -158,425 c -87,234 -168,453 -181,488 -13,34 -21,62 -18,62 4,0 37,-24 73,-54 z" />
    <path
       id="path76"
       d="m 2779,7422 -77,-207 151,-3 c 82,-1 152,0 155,2 5,5 -136,395 -147,408 -3,3 -40,-87 -82,-200 z" />
    <path
       id="path78"
       d="m 3590,7327 v -512 l 78,-78 77,-77 h 338 337 v 118 117 l -78,78 -77,77 h -138 -137 v 323 323 l -79,72 -80,72 h -120 -121 z m 222,96 3,-398 218,-3 217,-2 v -95 -95 l -317,2 -318,3 -3,480 c -1,264 0,486 3,493 3,8 33,12 100,12 h 95 z m 158,157 c 0,-5 -7,-10 -15,-10 -8,0 -15,-6 -15,-14 0,-8 -6,-17 -12,-20 -10,-5 -10,-7 0,-12 6,-3 12,-12 12,-19 0,-7 -6,-15 -12,-18 -8,-2 -9,-8 -4,-13 5,-5 11,-4 13,4 5,14 33,17 33,3 0,-5 -8,-12 -17,-16 -17,-6 -17,-8 2,-21 20,-15 20,-16 1,-29 -17,-13 -17,-15 -3,-21 22,-8 22,-34 0,-34 -17,-1 -17,-1 0,-14 15,-11 17,-32 17,-155 v -141 h -65 -65 v 175 c 0,133 3,175 13,176 10,0 10,2 0,6 -7,2 -13,13 -13,24 0,10 6,19 13,20 10,0 10,2 0,6 -7,2 -13,13 -13,23 0,10 6,21 13,24 10,5 10,7 0,12 -7,3 -13,10 -13,16 0,13 26,38 39,38 15,0 14,-27 -1,-32 -9,-3 -8,-10 5,-22 10,-10 21,-15 25,-12 3,4 0,12 -8,17 -11,8 -12,12 -2,16 6,2 12,11 12,19 0,8 7,14 15,14 8,0 15,5 15,10 0,6 7,10 15,10 8,0 15,-4 15,-10 z m 420,-784 v -100 l -55,54 -55,54 v 100 100 l 55,-54 55,-54 z" />
    <path
       id="path80"
       d="m 4420,7722 v -118 l 73,-72 72,-72 h 63 62 v -323 -322 l 78,-78 78,-78 125,3 124,3 3,398 2,397 h 130 130 v 113 112 l -78,78 -77,77 h -393 -392 z m 770,3 v -95 h -135 -135 v -400 -400 h -100 -100 v 400 400 h -135 -135 v 95 95 h 370 370 z m 140,-139 v -100 l -55,54 -55,54 v 100 100 l 55,-54 55,-54 z m -348,-73 c -14,-13 -22,-27 -17,-31 4,-4 10,-1 12,6 3,6 11,12 18,12 7,0 15,5 17,12 3,7 11,5 26,-7 11,-10 19,-22 16,-27 -9,-13 -24,-9 -24,7 0,8 -4,15 -10,15 -14,0 -12,-27 3,-34 10,-5 10,-7 0,-12 -17,-8 -16,-22 1,-40 17,-16 36,-19 36,-4 0,6 -7,10 -15,10 -8,0 -15,7 -15,15 0,8 6,15 14,15 8,0 16,5 18,11 2,6 5,-166 7,-382 l 2,-394 -66,65 -66,65 2,365 c 2,219 7,372 13,382 9,15 12,15 32,-5 l 21,-20 z" />
    <path
       id="path82"
       d="m 5440,7328 v -512 l 78,-78 78,-78 h 252 252 l -23,-47 c -13,-27 -52,-131 -87,-233 -44,-126 -74,-199 -97,-229 -18,-24 -33,-49 -33,-56 0,-16 -110,-102 -136,-107 -15,-2 -20,4 -22,26 -4,34 41,165 70,201 27,35 19,58 -25,72 -55,18 -82,2 -106,-62 -11,-28 -22,-67 -26,-86 -7,-39 -165,-229 -190,-229 -24,0 -18,67 11,135 49,113 84,220 84,255 0,70 -46,98 -109,65 -29,-15 -127,-136 -156,-193 -42,-84 -13,33 36,145 22,51 22,54 6,88 -19,39 -55,54 -92,37 -45,-20 -181,-238 -236,-377 -10,-25 -13,-27 -17,-11 -6,28 28,136 55,172 13,17 23,34 23,38 0,15 -53,76 -66,76 -15,0 -55,-74 -74,-137 -7,-24 -20,-49 -29,-57 -15,-14 -177,-106 -185,-106 -3,0 -9,24 -15,53 -37,183 -38,200 -16,244 44,88 -63,102 -116,16 -19,-31 -21,-43 -15,-116 4,-45 17,-120 29,-166 l 22,-83 -25,-19 c -14,-11 -54,-41 -89,-67 -119,-87 -152,-158 -107,-228 23,-34 90,-64 146,-64 136,0 222,122 206,291 l -6,69 42,21 c 24,12 62,35 86,51 l 42,29 v -47 c 0,-39 5,-51 31,-75 31,-29 69,-39 69,-18 0,5 36,83 80,172 71,145 163,287 177,274 2,-3 -10,-40 -28,-84 -48,-119 -56,-143 -63,-205 -7,-53 -5,-59 19,-84 24,-24 27,-25 44,-10 10,9 31,40 46,69 26,48 162,237 170,237 5,0 -32,-96 -50,-130 -80,-152 -44,-340 64,-340 40,0 69,25 158,135 l 32,40 26,-33 c 31,-37 73,-62 108,-62 24,0 61,34 130,120 l 28,35 -7,-30 c -17,-79 -33,-184 -34,-217 0,-66 21,-138 51,-173 58,-65 124,-52 219,44 63,63 151,180 206,273 l 25,43 -6,-42 c -9,-58 9,-105 55,-147 47,-42 96,-54 136,-33 47,25 125,113 273,306 56,73 69,97 60,107 -16,19 -30,8 -82,-61 -132,-175 -157,-204 -215,-247 -117,-89 -129,-66 -86,155 5,22 17,33 57,51 64,28 151,106 177,157 41,80 20,136 -59,160 -87,26 -168,-36 -251,-195 -147,-276 -337,-534 -388,-524 -52,10 -52,165 0,357 28,102 38,122 91,195 34,44 88,124 120,176 33,52 71,108 84,124 13,16 43,66 65,110 22,45 42,83 44,85 3,3 24,-14 47,-37 l 43,-42 h 387 387 v 113 113 l -69,75 -68,74 -127,5 -127,5 181,234 180,234 v 91 92 l -66,72 -66,72 h -369 -369 v -114 -114 l 74,-66 74,-66 h 82 c 64,0 81,-3 77,-13 -3,-7 -78,-108 -167,-224 -105,-137 -170,-213 -185,-217 -12,-3 -39,-24 -59,-46 -20,-22 -40,-40 -44,-40 -4,0 -30,23 -57,50 l -49,50 h -158 -158 v 30 30 h 190 190 v 103 103 l -73,72 -72,72 h -118 c -117,0 -118,0 -115,23 3,22 3,22 226,25 l 222,2 v 98 98 l -73,72 -72,72 h -348 -347 z m 670,402 v -90 h -220 -220 v -105 -105 h 185 185 v -95 -95 h -185 -185 v -115 -115 h 230 230 v -90 -90 h -330 -330 v 495 495 h 320 320 z m 1010,-3 v -93 l -239,-310 -239,-309 244,-3 244,-2 v -90 -90 h -331 -331 l 6,44 c 8,50 -9,101 -44,134 l -22,20 231,301 c 127,165 231,303 231,306 0,3 -101,5 -225,5 h -225 v 83 c 0,46 3,87 7,90 3,4 161,7 350,7 h 343 z m -870,-125 v -83 l -55,47 -55,48 v 90 90 l 55,-54 55,-54 z m 990,7 v -83 l -45,44 -45,44 v 86 85 l 45,-47 45,-47 z m -220,-199 c 0,-5 -4,-10 -10,-10 -14,0 -12,-27 3,-34 10,-5 10,-7 0,-12 -7,-3 -13,-12 -13,-19 0,-7 6,-16 13,-19 10,-5 10,-7 0,-12 -7,-3 -13,-12 -13,-20 0,-8 -7,-14 -15,-14 -8,0 -15,7 -15,15 0,8 7,15 15,15 8,0 15,5 15,10 0,6 -7,10 -15,10 -8,0 -15,7 -15,15 0,8 7,15 15,15 8,0 15,5 15,10 0,15 -19,12 -36,-4 -8,-8 -14,-19 -14,-25 0,-6 -7,-11 -15,-11 -8,0 -15,-4 -15,-10 0,-5 7,-10 15,-10 8,0 15,-7 15,-15 0,-8 -7,-15 -15,-15 -8,0 -15,7 -15,15 0,8 -4,15 -10,15 -16,0 -12,-19 9,-41 18,-20 19,-20 30,-2 11,17 11,17 22,0 10,-17 14,-15 46,19 31,34 33,38 17,47 -16,9 -16,11 2,24 18,14 18,15 1,25 -18,9 -18,11 3,30 12,11 24,17 28,13 4,-4 1,-10 -5,-12 -7,-3 -13,-11 -13,-18 0,-7 6,-16 13,-19 10,-5 10,-7 0,-12 -7,-3 -13,-12 -13,-19 0,-7 6,-16 13,-19 10,-5 10,-7 0,-12 -7,-3 -13,-12 -13,-20 0,-8 -7,-14 -15,-14 -8,0 -15,-7 -15,-15 0,-8 -5,-15 -11,-15 -6,0 -9,-7 -6,-14 4,-11 1,-13 -11,-9 -9,4 -21,11 -25,17 -6,8 -10,7 -14,-1 -2,-7 -11,-13 -18,-13 -7,0 -15,6 -18,13 -2,6 -8,9 -12,5 -4,-4 2,-16 13,-28 19,-21 21,-21 31,-3 9,16 12,16 21,3 14,-21 12,-30 -5,-24 -8,4 -15,1 -15,-5 0,-6 5,-11 11,-11 12,0 -14,-37 -64,-92 -35,-40 -51,-46 -61,-25 -5,10 -7,10 -12,0 -3,-7 -12,-13 -19,-13 -7,0 -16,6 -19,13 -5,10 -7,10 -12,0 -3,-7 -12,-13 -19,-13 -7,0 -16,6 -19,13 -5,10 -7,10 -12,0 -3,-7 -10,-13 -15,-13 -13,0 3,27 42,70 20,22 33,30 36,23 6,-17 21,-16 39,1 17,18 18,32 2,40 -10,5 -10,7 0,12 6,3 12,14 12,25 0,12 5,16 15,13 18,-7 20,-30 3,-38 -10,-5 -10,-7 0,-12 6,-3 12,-12 12,-19 0,-7 -6,-15 -12,-18 -7,-2 -10,-8 -6,-12 8,-8 38,18 38,33 0,6 -6,13 -12,16 -9,3 -8,8 5,16 18,11 18,13 -2,31 -24,22 -30,49 -7,30 9,-8 16,-8 20,-2 4,5 2,12 -4,16 -16,10 -12,18 35,68 25,27 45,52 45,58 0,5 7,9 15,9 8,0 15,5 15,10 0,6 5,10 10,10 6,0 10,-4 10,-10 z m -832,-210 -3,-83 -57,52 -58,53 v 91 92 l 60,-61 61,-60 z m 1092,-412 c 0,-48 -3,-88 -7,-88 -4,0 -31,23 -60,52 l -53,52 v 95 95 l 60,-59 60,-59 z m -932,-50 c -35,-89 -229,-424 -227,-393 0,6 24,78 52,160 l 52,150 38,3 37,3 v 87 c 0,81 3,91 33,137 l 32,50 5,-65 c 4,-55 1,-76 -22,-132 z M 4560,5814 c -7,-23 -24,-57 -39,-74 -22,-27 -36,-33 -78,-37 -32,-3 -53,-1 -57,6 -16,25 30,87 104,143 74,56 75,56 78,30 2,-14 -2,-44 -8,-68 z" />
    <path
       id="path84"
       d="m 7679,7813 c -6,-16 -92,-246 -190,-511 l -179,-484 49,-56 c 93,-108 83,-103 212,-100 l 114,3 35,100 35,100 158,3 158,3 10,-30 c 7,-18 46,-59 102,-105 l 92,-76 h 138 139 l -6,23 c -3,12 -88,244 -189,516 l -184,494 -94,73 -94,73 -148,1 h -147 z m 289,-10 c 5,-10 87,-227 182,-483 95,-256 175,-471 177,-477 4,-10 -21,-13 -104,-13 h -109 l -34,100 -35,100 h -210 -211 l -33,-100 -32,-100 h -105 c -70,0 -104,4 -104,11 0,9 180,500 351,957 8,21 13,22 133,22 109,0 126,-2 134,-17 z m 131,-85 53,-43 180,-484 c 98,-266 177,-485 176,-487 -5,-4 -132,95 -139,109 -4,7 -84,221 -179,477 -95,256 -175,471 -178,479 -7,19 19,3 87,-51 z" />
    <path
       id="path86"
       d="m 7761,7433 c -41,-109 -76,-204 -78,-210 -4,-10 30,-13 151,-13 86,0 156,2 156,5 0,7 -141,388 -149,403 -4,7 -39,-75 -80,-185 z" />
    <path
       id="path88"
       d="m 5791,6611 c -9,-6 -16,-28 -16,-53 -2,-44 -40,-138 -56,-138 -11,0 -11,-41 0,-59 14,-22 66,7 111,63 14,18 14,19 -10,6 l -25,-13 23,25 c 12,13 22,29 22,34 0,6 11,20 25,32 14,12 25,30 25,41 0,42 -66,84 -99,62 z" />
  </g>
</svg>
